<svg width="858.35498046875px" height="147.20249023437498px" xmlns="http://www.w3.org/2000/svg" viewBox="-179.177490234375 1.3987548828125114 858.35498046875 147.20249023437498" style="background: rgba(0, 0, 0, 0);" preserveAspectRatio="xMidYMid"><defs><linearGradient id="editing-sticker-gradient" x1="0.5" y1="0.2" x2="0.5" y2="0.8"><stop offset="0" stop-color="#fd9"></stop><stop offset="1" stop-color="#9df"></stop></linearGradient><filter id="editing-sticker" x="-100%" y="-100%" width="300%" height="300%"><feMorphology operator="erode" radius="1" in="SourceAlpha" result="alpha-erode"></feMorphology><feConvolveMatrix order="3,3" divisor="1" kernelMatrix="0 1 0 1 1 1 0 1 0" in="alpha-erode" result="alpha-round"></feConvolveMatrix><feMorphology operator="dilate" radius="3.5" in="alpha-round" result="dilate-shadow"></feMorphology><feGaussianBlur in="dilate-shadow" stdDeviation="1.5" result="shadow"></feGaussianBlur><feFlood flood-color="#fff" result="flood-sticker"></feFlood><feComposite operator="in" in="flood-sticker" in2="alpha-round" result="comp-sticker"></feComposite><feMorphology operator="dilate" radius="3" in="comp-sticker" result="morph-sticker"></feMorphology><feConvolveMatrix order="3,3" divisor="1" kernelMatrix="0 1 0 1 1 1 0 1 0" in="morph-sticker" result="sticker"></feConvolveMatrix><feMerge><feMergeNode in="shadow"></feMergeNode><feMergeNode in="sticker"></feMergeNode><feMergeNode in="SourceGraphic"></feMergeNode></feMerge></filter></defs><g filter="url(#editing-sticker)"><g transform="translate(-57.0625, 97.69000053405762)"><path d="M30.97-9.41L48.63-44.16L55.22-44.16L55.22-43.41L55.22-43.41Q54.47-43 54.09-42.06L54.09-42.06L54.09-42.06Q53.72-41.13 53.67-40.33L53.67-40.33L53.67-40.33Q53.63-39.53 53.63-37.84L53.63-37.84L53.63-37.84Q53.63-37.50 53.63-37.31L53.63-37.31L53.63-37.31Q53.63-27.50 53.83-20.56L53.83-20.56L53.83-20.56Q54.03-13.63 54.78-6.53L54.78-6.53L54.78-6.53Q54.94-5.06 55.95-4L55.95-4L55.95-4Q56.97-2.94 58.50-2.94L58.50-2.94L58.50-2.94Q58.63-2.94 62.09-3.31L62.09-3.31L62.09-1.78L62.09-1.78Q56.22 0.38 53.38 0.38L53.38 0.38L53.38 0.38Q51.72 0.38 50.53-0.16L50.53-0.16L50.53-0.16Q49.34-0.69 49.34-1.84L49.34-1.84L49.34-13.50L49.34-13.50Q49.34-13.97 48.72-35.06L48.72-35.06L48.72-35.06Q48.72-35.44 48.56-35.73L48.56-35.73L48.56-35.73Q48.41-36.03 48.19-36.03L48.19-36.03L48.19-36.03Q47.81-36.03 47.50-35.53L47.50-35.53L29.19-0.06L27.25-0.06L27.25-0.06Q26.69-1.41 24.81-5.91L24.81-5.91L24.81-5.91Q22.94-10.41 22.09-12.44L22.09-12.44L22.09-12.44Q21.25-14.47 19.59-18.36L19.59-18.36L19.59-18.36Q17.94-22.25 16.91-24.59L16.91-24.59L16.91-24.59Q15.88-26.94 14.63-29.70L14.63-29.70L14.63-29.70Q13.38-32.47 12.41-34.44L12.41-34.44L12.41-34.44Q12.03-35.06 11.72-35.06L11.72-35.06L11.72-35.06Q11.25-35.06 10.63-30.88L10.63-30.88L10.63-30.88Q10-26.69 9.38-20.16L9.38-20.16L9.38-20.16Q8.75-13.63 8.39-9.41L8.39-9.41L8.39-9.41Q8.03-5.19 7.75-1.47L7.75-1.47L2.94 0.19L2.50 0L2.50 0Q6.72-21.75 8.91-37.81L8.91-37.81L8.91-37.81Q8.97-38.06 8.97-38.59L8.97-38.59L8.97-38.59Q8.97-39.47 8.48-40.17L8.48-40.17L8.48-40.17Q8-40.88 7.16-41.09L7.16-41.09L2.81-42.31L2.94-43.72L3.41-44.16L14.66-44.16L14.66-44.16Q16.31-39.38 19.08-32.80L19.08-32.80L19.08-32.80Q21.84-26.22 23.89-21.75L23.89-21.75L23.89-21.75Q25.94-17.28 29.50-9.72L29.50-9.72L29.50-9.72Q29.94-8.84 30.22-8.84L30.22-8.84L30.22-8.84Q30.41-8.84 30.64-9.03L30.64-9.03L30.64-9.03Q30.88-9.22 30.97-9.41L30.97-9.41ZM69.69-20.22L69.69-20.22L69.69-20.22Q69.19-18.09 69.19-15.28L69.19-15.28L69.19-15.28Q69.19-13.50 69.41-11.78L69.41-11.78L69.41-11.78Q69.63-10.06 70.23-8.19L70.23-8.19L70.23-8.19Q70.84-6.31 71.77-4.92L71.77-4.92L71.77-4.92Q72.69-3.53 74.25-2.63L74.25-2.63L74.25-2.63Q75.81-1.72 77.81-1.72L77.81-1.72L77.81-1.72Q79.81-1.72 81.33-2.52L81.33-2.52L81.33-2.52Q82.84-3.31 83.75-4.53L83.75-4.53L83.75-4.53Q84.66-5.75 85.22-7.45L85.22-7.45L85.22-7.45Q85.78-9.16 85.98-10.75L85.98-10.75L85.98-10.75Q86.19-12.34 86.19-14.09L86.19-14.09L86.19-14.09Q86.19-15.88 86.02-17.50L86.02-17.50L86.02-17.50Q85.84-19.13 85.30-20.97L85.30-20.97L85.30-20.97Q84.75-22.81 83.86-24.14L83.86-24.14L83.86-24.14Q82.97-25.47 81.39-26.36L81.39-26.36L81.39-26.36Q79.81-27.25 77.75-27.25L77.75-27.25L77.75-27.25Q75-27.25 72.77-25.44L72.77-25.44L72.77-25.44Q70.53-23.63 69.69-20.22ZM76.09 0.91L76.09 0.91L76.09 0.91Q72.91 0.91 70.52-0.22L70.52-0.22L70.52-0.22Q68.13-1.34 66.72-3.30L66.72-3.30L66.72-3.30Q65.31-5.25 64.59-7.55L64.59-7.55L64.59-7.55Q63.88-9.84 63.69-12.53L63.69-12.53L63.69-12.53Q63.69-16.56 64.39-19.67L64.39-19.67L64.39-19.67Q65.09-22.78 67.19-25.03L67.19-25.03L67.19-25.03Q69.34-27.41 72.52-28.58L72.52-28.58L72.52-28.58Q75.69-29.75 79.22-29.75L79.22-29.75L79.22-29.75Q82.59-29.75 85.14-28.52L85.14-28.52L85.14-28.52Q87.69-27.28 89.11-25.17L89.11-25.17L89.11-25.17Q90.53-23.06 91.22-20.58L91.22-20.58L91.22-20.58Q91.91-18.09 91.91-15.28L91.91-15.28L91.91-15.28Q91.91-7.91 88.19-3.78L88.19-3.78L88.19-3.78Q86.06-1.38 82.89-0.23L82.89-0.23L82.89-0.23Q79.72 0.91 76.09 0.91ZM119.25 0.63L118.63 0.25L118.63 0.25Q118.63-0.13 118.94-6.53L118.94-6.53L118.94-6.53Q119.25-12.94 119.25-17.22L119.25-17.22L119.25-17.22Q119.25-21.50 118.13-23.55L118.13-23.55L118.13-23.55Q117-25.59 114-25.59L114-25.59L114-25.59Q112.66-25.59 110.83-24.92L110.83-24.92L110.83-24.92Q109-24.25 108.06-23.72L108.06-23.72L108.06-23.72Q107.13-23.19 106.53-22.78L106.53-22.78L106.53-22.78Q106.19-14.38 106.19-8.91L106.19-8.91L106.19-8.91Q106.19-4.19 106.34-0.91L106.34-0.91L102.03 0.63L101.16 0.13L101.16 0.13Q101.19-2.50 101.39-8.42L101.39-8.42L101.39-8.42Q101.59-14.34 101.59-17.47L101.59-17.47L101.59-17.47Q101.59-22.59 101.19-24.16L101.19-24.16L101.19-24.16Q100.66-26.38 99.03-26.38L99.03-26.38L99.03-26.38Q97.50-26.38 94.25-24.50L94.25-24.50L93.47-25.72L93.47-25.72Q98.81-30.03 102.25-30.16L102.25-30.16L102.25-30.16Q106.19-30.16 106.19-25.41L106.19-25.41L106.72-25.03L106.72-25.03Q107.16-25.25 108.69-26.13L108.69-26.13L108.69-26.13Q110.22-27 110.98-27.38L110.98-27.38L110.98-27.38Q111.75-27.75 113.06-28.33L113.06-28.33L113.06-28.33Q114.38-28.91 115.50-29.14L115.50-29.14L115.50-29.14Q116.63-29.38 117.72-29.38L117.72-29.38L117.72-29.38Q119.50-29.38 121.03-28.50L121.03-28.50L121.03-28.50Q122.56-27.63 123.47-26.06L123.47-26.06L124.50-25.91L124.50-25.91Q128.72-28.13 130.97-28.81L130.97-28.81L130.97-28.81Q133.03-29.44 134.75-29.44L134.75-29.44L134.75-29.44Q138.09-29.44 139.81-27.72L139.81-27.72L139.81-27.72Q140.16-27.34 140.41-26.88L140.41-26.88L140.41-26.88Q140.66-26.41 140.80-25.70L140.80-25.70L140.80-25.70Q140.94-25 141.02-24.38L141.02-24.38L141.02-24.38Q141.09-23.75 141.11-22.66L141.11-22.66L141.11-22.66Q141.13-21.56 141.13-20.75L141.13-20.75L141.13-20.75Q141.13-19.94 141.11-18.42L141.11-18.42L141.11-18.42Q141.09-16.91 141.09-15.88L141.09-15.88L141.09-7.50L141.09-7.50Q141.09-3.31 144.34-3.31L144.34-3.31L144.34-3.31Q145.88-3.31 149.28-5.88L149.28-5.88L150.16-5.88L150.63-4.53L150.63-4.53Q148.75-2.84 147.47-1.81L147.47-1.81L147.47-1.81Q146.19-0.78 144.17 0.19L144.17 0.19L144.17 0.19Q142.16 1.16 140.38 1.16L140.38 1.16L140.38 1.16Q138.28 1.16 137.16-0.31L137.16-0.31L137.16-0.31Q136.03-1.78 136.03-3.78L136.03-3.78L136.03-3.78Q136.03-3.84 136.19-9.11L136.19-9.11L136.19-9.11Q136.34-14.38 136.34-17.22L136.34-17.22L136.34-17.22Q136.34-21.38 135.11-23.48L135.11-23.48L135.11-23.48Q133.88-25.59 130.91-25.59L130.91-25.59L130.91-25.59Q127.47-25.59 123.75-23.44L123.75-23.44L123.75-23.44Q123.63-17.56 123.63-14.59L123.63-14.59L123.63-14.59Q123.63-7.75 124-1.16L124-1.16L119.25 0.63ZM145.94-40.97L145.94-42.31L146.31-42.63L157.13-43.78L157.50-43.31L157.50-43.31Q156.63-34.13 156.63-27.66L156.63-27.66L156.63-27.66Q156.63-27.66 156.63-25.53L156.63-25.53L157.19-25.22L157.19-25.22Q160.13-27.44 162.89-28.69L162.89-28.69L162.89-28.69Q165.66-29.94 168.66-29.94L168.66-29.94L168.66-29.94Q172.91-29.94 175.28-26.97L175.28-26.97L175.28-26.97Q177.66-24 177.66-19.72L177.66-19.72L177.66-19.72Q177.66-14.91 176.47-11.31L176.47-11.31L176.47-11.31Q174.78-6.22 169.86-2.80L169.86-2.80L169.86-2.80Q164.94 0.63 159.44 0.63L159.44 0.63L159.44 0.63Q158.38 0.63 157.41 0.44L157.41 0.44L157.41 0.44Q156.44 0.25 155.41-0.33L155.41-0.33L155.41-0.33Q154.38-0.91 153.64-1.81L153.64-1.81L153.64-1.81Q152.91-2.72 152.42-4.28L152.42-4.28L152.42-4.28Q151.94-5.84 151.94-7.88L151.94-7.88L151.94-38.34L151.94-38.34Q151.94-38.81 151.89-39.08L151.89-39.08L151.89-39.08Q151.84-39.34 151.78-39.58L151.78-39.58L151.78-39.58Q151.72-39.81 151.47-39.94L151.47-39.94L151.47-39.94Q151.22-40.06 151-40.17L151-40.17L151-40.17Q150.78-40.28 150.23-40.36L150.23-40.36L150.23-40.36Q149.69-40.44 149.20-40.52L149.20-40.52L149.20-40.52Q148.72-40.59 147.75-40.72L147.75-40.72L147.75-40.72Q146.78-40.84 145.94-40.97L145.94-40.97ZM156.88-22.22L156.88-22.22L156.88-22.22Q156.63-17.84 156.63-14.66L156.63-14.66L156.63-14.66Q156.63-12.25 156.73-10.59L156.73-10.59L156.73-10.59Q156.84-8.94 157.22-7.27L157.22-7.27L157.22-7.27Q157.59-5.59 158.28-4.63L158.28-4.63L158.28-4.63Q158.97-3.66 160.13-3.05L160.13-3.05L160.13-3.05Q161.28-2.44 162.94-2.44L162.94-2.44L162.94-2.44Q165.38-2.44 167.25-3.48L167.25-3.48L167.25-3.48Q169.13-4.53 170.20-6.30L170.20-6.30L170.20-6.30Q171.28-8.06 171.81-10.14L171.81-10.14L171.81-10.14Q172.34-12.22 172.34-14.53L172.34-14.53L172.34-14.53Q172.34-20.41 170.44-23.22L170.44-23.22L170.44-23.22Q168.63-25.97 165.63-25.97L165.63-25.97L165.63-25.97Q161.16-25.97 156.88-22.22ZM205.38-27.59L205.38-27.59L208.75-29.56L209.09-29.25L209.09-29.25Q208.69-21.63 208.69-15.28L208.69-15.28L208.69-15.28Q208.69-14.66 208.64-13.39L208.64-13.39L208.64-13.39Q208.59-12.13 208.58-11.16L208.58-11.16L208.58-11.16Q208.56-10.19 208.58-8.92L208.58-8.92L208.58-8.92Q208.59-7.66 208.75-6.75L208.75-6.75L208.75-6.75Q208.91-5.84 209.17-5.02L209.17-5.02L209.17-5.02Q209.44-4.19 209.95-3.75L209.95-3.75L209.95-3.75Q210.47-3.31 211.19-3.31L211.19-3.31L211.19-3.31Q212.25-3.31 215.34-4.47L215.34-4.47L215.81-2.94L215.81-2.94Q215.63-2.84 214.94-2.42L214.94-2.42L214.94-2.42Q214.25-2 213.98-1.84L213.98-1.84L213.98-1.84Q213.72-1.69 213.06-1.31L213.06-1.31L213.06-1.31Q212.41-0.94 212.06-0.75L212.06-0.75L212.06-0.75Q211.72-0.56 211.14-0.27L211.14-0.27L211.14-0.27Q210.56 0.03 210.17 0.17L210.17 0.17L210.17 0.17Q209.78 0.31 209.31 0.48L209.31 0.48L209.31 0.48Q208.84 0.66 208.47 0.72L208.47 0.72L208.47 0.72Q208.09 0.78 207.75 0.78L207.75 0.78L207.75 0.78Q206.09 0.78 205.25-0.20L205.25-0.20L205.25-0.20Q204.41-1.19 204.09-3L204.09-3L203.13-3.25L203.13-3.25Q197.03 0.78 192.69 0.78L192.69 0.78L192.69 0.78Q190.16 0.78 188.25-0.36L188.25-0.36L188.25-0.36Q186.34-1.50 185.31-3.41L185.31-3.41L185.31-3.41Q184.28-5.31 183.78-7.42L183.78-7.42L183.78-7.42Q183.28-9.53 183.28-11.84L183.28-11.84L183.28-11.84Q183.28-14.63 183.81-17.19L183.81-17.19L183.81-17.19Q184.34-19.75 185.53-22.06L185.53-22.06L185.53-22.06Q186.72-24.38 188.45-26.09L188.45-26.09L188.45-26.09Q190.19-27.81 192.78-28.81L192.78-28.81L192.78-28.81Q195.38-29.81 198.53-29.81L198.53-29.81L198.53-29.81Q200.16-29.81 202.02-29.23L202.02-29.23L202.02-29.23Q203.88-28.66 205.38-27.59ZM203.97-6.34L203.97-6.34L203.97-21.06L203.97-21.06Q203.97-22.16 203.94-22.75L203.94-22.75L203.94-22.75Q203.91-23.34 203.66-24.16L203.66-24.16L203.66-24.16Q203.41-24.97 202.94-25.47L202.94-25.47L202.94-25.47Q200.91-27.59 198.59-27.59L198.59-27.59L198.59-27.59Q195.03-27.59 192.50-25.16L192.50-25.16L192.50-25.16Q191.19-23.88 190.17-21.02L190.17-21.02L190.17-21.02Q189.16-18.16 189.06-13.75L189.06-13.75L189.06-13.75Q188.94-9 190.84-6.09L190.84-6.09L190.84-6.09Q192.50-3.47 197.19-3.47L197.19-3.47L197.19-3.47Q200.25-3.47 203.97-6.34ZM235.44-24.50L235.44-24.50L231.91-22.16L231.13-22.59L231.13-22.59Q230.78-27.59 226.97-27.59L226.97-27.59L226.97-27.59Q224.72-27.59 223.22-26.11L223.22-26.11L223.22-26.11Q221.72-24.63 221.72-22.41L221.72-22.41L221.72-22.41Q221.72-20.56 223.39-19.19L223.39-19.19L223.39-19.19Q225.06-17.81 228.78-16.25L228.78-16.25L228.78-16.25Q232.53-14.63 234.33-12.84L234.33-12.84L234.33-12.84Q236.13-11.06 236.13-8.84L236.13-8.84L236.13-8.84Q236.13-6.50 235.05-4.56L235.05-4.56L235.05-4.56Q233.97-2.63 232.22-1.42L232.22-1.42L232.22-1.42Q230.47-0.22 228.36 0.44L228.36 0.44L228.36 0.44Q226.25 1.09 224.09 1.09L224.09 1.09L224.09 1.09Q217.50 1.09 214.69-4.22L214.69-4.22L217.81-8.78L218.72-8.72L218.72-8.72Q218.91-5.69 220.97-3.52L220.97-3.52L220.97-3.52Q223.03-1.34 226-1.34L226-1.34L226-1.34Q228.06-1.34 229.77-2.81L229.77-2.81L229.77-2.81Q231.47-4.28 231.47-6.22L231.47-6.22L231.47-6.22Q231.47-7.38 230.94-8.36L230.94-8.36L230.94-8.36Q230.41-9.34 229.39-10.11L229.39-10.11L229.39-10.11Q228.38-10.88 227.42-11.39L227.42-11.39L227.42-11.39Q226.47-11.91 225.13-12.47L225.13-12.47L225.13-12.47Q223.44-13.16 222.14-13.88L222.14-13.88L222.14-13.88Q220.84-14.59 219.64-15.59L219.64-15.59L219.64-15.59Q218.44-16.59 217.78-17.89L217.78-17.89L217.78-17.89Q217.13-19.19 217.13-20.69L217.13-20.69L217.13-20.69Q217.13-23.44 218.80-25.58L218.80-25.58L218.80-25.58Q220.47-27.72 222.97-28.77L222.97-28.77L222.97-28.77Q225.47-29.81 228.19-29.81L228.19-29.81L228.19-29.81Q231.03-29.81 233.17-28.50L233.17-28.50L233.17-28.50Q235.31-27.19 235.44-24.50ZM263.91-27.59L263.91-27.59L267.28-29.56L267.63-29.25L267.63-29.25Q267.22-21.63 267.22-15.28L267.22-15.28L267.22-15.28Q267.22-14.66 267.17-13.39L267.17-13.39L267.17-13.39Q267.13-12.13 267.11-11.16L267.11-11.16L267.11-11.16Q267.09-10.19 267.11-8.92L267.11-8.92L267.11-8.92Q267.13-7.66 267.28-6.75L267.28-6.75L267.28-6.75Q267.44-5.84 267.70-5.02L267.70-5.02L267.70-5.02Q267.97-4.19 268.48-3.75L268.48-3.75L268.48-3.75Q269-3.31 269.72-3.31L269.72-3.31L269.72-3.31Q270.78-3.31 273.88-4.47L273.88-4.47L274.34-2.94L274.34-2.94Q274.16-2.84 273.47-2.42L273.47-2.42L273.47-2.42Q272.78-2 272.52-1.84L272.52-1.84L272.52-1.84Q272.25-1.69 271.59-1.31L271.59-1.31L271.59-1.31Q270.94-0.94 270.59-0.75L270.59-0.75L270.59-0.75Q270.25-0.56 269.67-0.27L269.67-0.27L269.67-0.27Q269.09 0.03 268.70 0.17L268.70 0.17L268.70 0.17Q268.31 0.31 267.84 0.48L267.84 0.48L267.84 0.48Q267.38 0.66 267 0.72L267 0.72L267 0.72Q266.63 0.78 266.28 0.78L266.28 0.78L266.28 0.78Q264.63 0.78 263.78-0.20L263.78-0.20L263.78-0.20Q262.94-1.19 262.63-3L262.63-3L261.66-3.25L261.66-3.25Q255.56 0.78 251.22 0.78L251.22 0.78L251.22 0.78Q248.69 0.78 246.78-0.36L246.78-0.36L246.78-0.36Q244.88-1.50 243.84-3.41L243.84-3.41L243.84-3.41Q242.81-5.31 242.31-7.42L242.31-7.42L242.31-7.42Q241.81-9.53 241.81-11.84L241.81-11.84L241.81-11.84Q241.81-14.63 242.34-17.19L242.34-17.19L242.34-17.19Q242.88-19.75 244.06-22.06L244.06-22.06L244.06-22.06Q245.25-24.38 246.98-26.09L246.98-26.09L246.98-26.09Q248.72-27.81 251.31-28.81L251.31-28.81L251.31-28.81Q253.91-29.81 257.06-29.81L257.06-29.81L257.06-29.81Q258.69-29.81 260.55-29.23L260.55-29.23L260.55-29.23Q262.41-28.66 263.91-27.59ZM262.50-6.34L262.50-6.34L262.50-21.06L262.50-21.06Q262.50-22.16 262.47-22.75L262.47-22.75L262.47-22.75Q262.44-23.34 262.19-24.16L262.19-24.16L262.19-24.16Q261.94-24.97 261.47-25.47L261.47-25.47L261.47-25.47Q259.44-27.59 257.13-27.59L257.13-27.59L257.13-27.59Q253.56-27.59 251.03-25.16L251.03-25.16L251.03-25.16Q249.72-23.88 248.70-21.02L248.70-21.02L248.70-21.02Q247.69-18.16 247.59-13.75L247.59-13.75L247.59-13.75Q247.47-9 249.38-6.09L249.38-6.09L249.38-6.09Q251.03-3.47 255.72-3.47L255.72-3.47L255.72-3.47Q258.78-3.47 262.50-6.34ZM292.56-21.63L292.56-20.75L292.56-4.22L292.56-4.22Q292.56-3.09 293.38-2.80L293.38-2.80L293.38-2.80Q294.19-2.50 297.38-2.50L297.38-2.50L297.38-2.50Q299.88-2.50 302.06-3.16L302.06-3.16L302.06-3.16Q304.25-3.81 305.98-5.08L305.98-5.08L305.98-5.08Q307.72-6.34 308.72-8.47L308.72-8.47L308.72-8.47Q309.72-10.59 309.72-13.31L309.72-13.31L309.72-13.31Q309.72-15.53 308.94-17.16L308.94-17.16L308.94-17.16Q308.16-18.78 306.94-19.72L306.94-19.72L306.94-19.72Q305.72-20.66 303.91-21.22L303.91-21.22L303.91-21.22Q302.09-21.78 300.38-21.97L300.38-21.97L300.38-21.97Q298.66-22.16 296.53-22.16L296.53-22.16L296.53-22.16Q293.56-22.16 293.06-22L293.06-22L293.06-22Q292.69-21.88 292.56-21.63L292.56-21.63ZM292.56-40.25L292.56-26.31L292.56-25.03L292.56-25.03Q292.66-24.59 293.14-24.48L293.14-24.48L293.14-24.48Q293.63-24.38 294.75-24.38L294.75-24.38L294.75-24.38Q297.38-24.38 299.63-24.97L299.63-24.97L299.63-24.97Q301.88-25.56 303.69-26.78L303.69-26.78L303.69-26.78Q305.50-28 306.53-30.06L306.53-30.06L306.53-30.06Q307.56-32.13 307.56-34.88L307.56-34.88L307.56-34.88Q307.56-36.81 306.75-38.16L306.75-38.16L306.75-38.16Q305.94-39.50 304.42-40.20L304.42-40.20L304.42-40.20Q302.91-40.91 301.19-41.19L301.19-41.19L301.19-41.19Q299.47-41.47 297.25-41.47L297.25-41.47L297.25-41.47Q297.16-41.47 296.91-41.47L296.91-41.47L296.91-41.47Q292.91-41.50 292.56-40.25L292.56-40.25ZM303.19-24.19L303.19-24.19L303.13-23.69L303.13-23.69Q309.97-22.78 312.77-20.25L312.77-20.25L312.77-20.25Q315.56-17.72 315.56-12.88L315.56-12.88L315.56-12.88Q315.56-10.03 314.53-7.77L314.53-7.77L314.53-7.77Q313.50-5.50 311.83-4.06L311.83-4.06L311.83-4.06Q310.16-2.63 307.91-1.67L307.91-1.67L307.91-1.67Q305.66-0.72 303.34-0.33L303.34-0.33L303.34-0.33Q301.03 0.06 298.59 0.06L298.59 0.06L298.59 0.06Q297.72 0.06 296.56 0.06L296.56 0.06L296.56 0.06Q295.41 0.06 294.23 0.05L294.23 0.05L294.23 0.05Q293.06 0.03 291.86 0.02L291.86 0.02L291.86 0.02Q290.66 0 289.59-0.02L289.59-0.02L289.59-0.02Q288.53-0.03 287.72-0.05L287.72-0.05L287.72-0.05Q286.91-0.06 286.41-0.06L286.41-0.06L285.91-0.06L285.84-0.72L285.84-0.72Q286.19-1.22 286.59-1.67L286.59-1.67L286.59-1.67Q287-2.13 287.09-2.36L287.09-2.36L287.09-2.36Q287.19-2.59 287.27-3.20L287.27-3.20L287.27-3.20Q287.34-3.81 287.34-5.19L287.34-5.19L287.34-39.09L287.34-39.09Q287.34-39.56 287.20-39.94L287.20-39.94L287.20-39.94Q287.06-40.31 286.67-40.61L286.67-40.61L286.67-40.61Q286.28-40.91 286.02-41.09L286.02-41.09L286.02-41.09Q285.75-41.28 285.08-41.52L285.08-41.52L285.08-41.52Q284.41-41.75 284.14-41.83L284.14-41.83L284.14-41.83Q283.88-41.91 283.05-42.13L283.05-42.13L283.05-42.13Q282.22-42.34 282.03-42.38L282.03-42.38L282.09-43.47L282.53-43.91L298.34-43.91L298.34-43.91Q313-43.91 313-35.41L313-35.41L313-35.41Q313-33.59 312.45-32.06L312.45-32.06L312.45-32.06Q311.91-30.53 311.06-29.41L311.06-29.41L311.06-29.41Q310.22-28.28 308.88-27.28L308.88-27.28L308.88-27.28Q307.53-26.28 306.23-25.59L306.23-25.59L306.23-25.59Q304.94-24.91 303.19-24.19ZM329.25-25.34L329.25-25.34L329.25-25.34Q327.53-23.50 326.92-21.41L326.92-21.41L326.92-21.41Q326.31-19.31 326.31-16.63L326.31-16.63L326.31-16.63Q326.31-16.25 326.44-15.50L326.44-15.50L326.69-15.22L339.63-20.34L339.63-20.34Q340.44-20.63 340.44-22.03L340.44-22.03L340.44-22.03Q340.44-24.22 338.80-26.13L338.80-26.13L338.80-26.13Q337.16-28.03 334.63-28.03L334.63-28.03L334.63-28.03Q331.44-28.03 329.25-25.34ZM344.59-20.41L344.59-20.41L326.56-12.59L326.56-12.59Q326.72-10.97 327.23-9.47L327.23-9.47L327.23-9.47Q327.75-7.97 328.69-6.59L328.69-6.59L328.69-6.59Q329.63-5.22 331.20-4.41L331.20-4.41L331.20-4.41Q332.78-3.59 334.81-3.59L334.81-3.59L334.81-3.59Q339.09-3.59 344.66-7.94L344.66-7.94L345.38-7.81L346.22-6.66L346.22-6.66Q338.28 0.78 331.63 0.78L331.63 0.78L331.63 0.78Q329.16 0.78 327.25-0.13L327.25-0.13L327.25-0.13Q325.34-1.03 324.19-2.48L324.19-2.48L324.19-2.48Q323.03-3.94 322.30-6L322.30-6L322.30-6Q321.56-8.06 321.28-10.09L321.28-10.09L321.28-10.09Q321-12.13 321-14.47L321-14.47L321-14.47Q321-21.09 324.25-24.84L324.25-24.84L324.25-24.84Q326.59-27.59 329.91-29.09L329.91-29.09L329.91-29.09Q333.22-30.59 336.88-30.59L336.88-30.59L336.88-30.59Q340.94-30.59 343.44-28.06L343.44-28.06L343.44-28.06Q345.94-25.53 345.94-21.75L345.94-21.75L345.94-21.75Q345.94-21.38 345.72-21.11L345.72-21.11L345.72-21.11Q345.50-20.84 345.30-20.73L345.30-20.73L345.30-20.73Q345.09-20.63 344.59-20.41ZM371.72-27.59L371.72-27.59L375.09-29.56L375.44-29.25L375.44-29.25Q375.03-21.63 375.03-15.28L375.03-15.28L375.03-15.28Q375.03-14.66 374.98-13.39L374.98-13.39L374.98-13.39Q374.94-12.13 374.92-11.16L374.92-11.16L374.92-11.16Q374.91-10.19 374.92-8.92L374.92-8.92L374.92-8.92Q374.94-7.66 375.09-6.75L375.09-6.75L375.09-6.75Q375.25-5.84 375.52-5.02L375.52-5.02L375.52-5.02Q375.78-4.19 376.30-3.75L376.30-3.75L376.30-3.75Q376.81-3.31 377.53-3.31L377.53-3.31L377.53-3.31Q378.59-3.31 381.69-4.47L381.69-4.47L382.16-2.94L382.16-2.94Q381.97-2.84 381.28-2.42L381.28-2.42L381.28-2.42Q380.59-2 380.33-1.84L380.33-1.84L380.33-1.84Q380.06-1.69 379.41-1.31L379.41-1.31L379.41-1.31Q378.75-0.94 378.41-0.75L378.41-0.75L378.41-0.75Q378.06-0.56 377.48-0.27L377.48-0.27L377.48-0.27Q376.91 0.03 376.52 0.17L376.52 0.17L376.52 0.17Q376.13 0.31 375.66 0.48L375.66 0.48L375.66 0.48Q375.19 0.66 374.81 0.72L374.81 0.72L374.81 0.72Q374.44 0.78 374.09 0.78L374.09 0.78L374.09 0.78Q372.44 0.78 371.59-0.20L371.59-0.20L371.59-0.20Q370.75-1.19 370.44-3L370.44-3L369.47-3.25L369.47-3.25Q363.38 0.78 359.03 0.78L359.03 0.78L359.03 0.78Q356.50 0.78 354.59-0.36L354.59-0.36L354.59-0.36Q352.69-1.50 351.66-3.41L351.66-3.41L351.66-3.41Q350.63-5.31 350.13-7.42L350.13-7.42L350.13-7.42Q349.63-9.53 349.63-11.84L349.63-11.84L349.63-11.84Q349.63-14.63 350.16-17.19L350.16-17.19L350.16-17.19Q350.69-19.75 351.88-22.06L351.88-22.06L351.88-22.06Q353.06-24.38 354.80-26.09L354.80-26.09L354.80-26.09Q356.53-27.81 359.13-28.81L359.13-28.81L359.13-28.81Q361.72-29.81 364.88-29.81L364.88-29.81L364.88-29.81Q366.50-29.81 368.36-29.23L368.36-29.23L368.36-29.23Q370.22-28.66 371.72-27.59ZM370.31-6.34L370.31-6.34L370.31-21.06L370.31-21.06Q370.31-22.16 370.28-22.75L370.28-22.75L370.28-22.75Q370.25-23.34 370-24.16L370-24.16L370-24.16Q369.75-24.97 369.28-25.47L369.28-25.47L369.28-25.47Q367.25-27.59 364.94-27.59L364.94-27.59L364.94-27.59Q361.38-27.59 358.84-25.16L358.84-25.16L358.84-25.16Q357.53-23.88 356.52-21.02L356.52-21.02L356.52-21.02Q355.50-18.16 355.41-13.75L355.41-13.75L355.41-13.75Q355.28-9 357.19-6.09L357.19-6.09L357.19-6.09Q358.84-3.47 363.53-3.47L363.53-3.47L363.53-3.47Q366.59-3.47 370.31-6.34ZM405.81-7.44L406.38-7.28L407.06-6.16L407.06-6.16Q403.59-2.75 400.13-0.77L400.13-0.77L400.13-0.77Q396.66 1.22 392.75 1.22L392.75 1.22L392.75 1.22Q390.59 1.22 388.86 0.70L388.86 0.70L388.86 0.70Q387.13 0.19 385.98-0.64L385.98-0.64L385.98-0.64Q384.84-1.47 384.02-2.75L384.02-2.75L384.02-2.75Q383.19-4.03 382.73-5.25L382.73-5.25L382.73-5.25Q382.28-6.47 382.03-8.13L382.03-8.13L382.03-8.13Q381.78-9.78 381.72-11.02L381.72-11.02L381.72-11.02Q381.66-12.25 381.66-13.88L381.66-13.88L381.66-13.88Q381.66-21.09 386.22-25.75L386.22-25.75L386.22-25.75Q390.78-30.41 397.88-30.41L397.88-30.41L397.88-30.41Q400.97-30.41 402.98-28.66L402.98-28.66L402.98-28.66Q405-26.91 405.28-24.13L405.28-24.13L401.84-20.75L400.75-21.13L400.75-21.13Q400.34-24.31 398.88-26.11L398.88-26.11L398.88-26.11Q397.41-27.91 395.31-27.91L395.31-27.91L395.31-27.91Q392.72-27.91 390.77-26.05L390.77-26.05L390.77-26.05Q388.81-24.19 387.89-21.50L387.89-21.50L387.89-21.50Q386.97-18.81 386.97-15.88L386.97-15.88L386.97-15.88Q386.97-14.06 387.17-12.41L387.17-12.41L387.17-12.41Q387.38-10.75 387.98-8.98L387.98-8.98L387.98-8.98Q388.59-7.22 389.56-5.94L389.56-5.94L389.56-5.94Q390.53-4.66 392.19-3.83L392.19-3.83L392.19-3.83Q393.84-3 396-3L396-3L396-3Q400.69-3 405.81-7.44L405.81-7.44ZM444.13-6.84L444.13-6.84L444.94-6.22L444.94-5.50L444.94-5.50Q442.31-2.69 439.91-1.03L439.91-1.03L439.91-1.03Q437.50 0.63 434.91 0.63L434.91 0.63L434.91 0.63Q432.81 0.63 431.73-1.23L431.73-1.23L431.73-1.23Q430.66-3.09 430.66-5.69L430.66-5.69L430.66-5.69Q430.66-7.56 430.80-11.80L430.80-11.80L430.80-11.80Q430.94-16.03 430.94-17.03L430.94-17.03L430.94-17.03Q430.94-18.63 430.83-19.83L430.83-19.83L430.83-19.83Q430.72-21.03 430.38-22.22L430.38-22.22L430.38-22.22Q430.03-23.41 429.44-24.16L429.44-24.16L429.44-24.16Q428.84-24.91 427.83-25.38L427.83-25.38L427.83-25.38Q426.81-25.84 425.44-25.84L425.44-25.84L425.44-25.84Q423.09-25.84 420.95-24.81L420.95-24.81L420.95-24.81Q418.81-23.78 416.34-22.03L416.34-22.03L416.34-22.03Q416.34-18.50 416.28-11.48L416.28-11.48L416.28-11.48Q416.22-4.47 416.22-1.03L416.22-1.03L411.59 0.38L411.22-0.25L411.22-0.25Q412.06-16.41 412.13-25.59L412.13-25.59L412.13-25.59Q412.13-26.66 412.14-28.66L412.14-28.66L412.14-28.66Q412.16-30.66 412.16-31.59L412.16-31.59L412.16-31.59Q412.16-32.53 412.11-34.02L412.11-34.02L412.11-34.02Q412.06-35.50 411.92-36.31L411.92-36.31L411.92-36.31Q411.78-37.13 411.52-38L411.52-38L411.52-38Q411.25-38.88 410.84-39.44L410.84-39.44L410.84-39.44Q410.75-39.56 410.59-39.69L410.59-39.69L410.59-39.69Q410.44-39.81 410.19-39.92L410.19-39.92L410.19-39.92Q409.94-40.03 409.70-40.13L409.70-40.13L409.70-40.13Q409.47-40.22 409.11-40.33L409.11-40.33L409.11-40.33Q408.75-40.44 408.50-40.50L408.50-40.50L408.50-40.50Q408.25-40.56 407.81-40.67L407.81-40.67L407.81-40.67Q407.38-40.78 407.16-40.83L407.16-40.83L407.16-40.83Q406.94-40.88 406.50-40.97L406.50-40.97L406.50-40.97Q406.06-41.06 405.91-41.09L405.91-41.09L405.91-42.25L406.22-42.50L416.34-43.59L416.72-43.13L416.72-43.13Q416.47-37.69 416.47-25.47L416.47-25.47L416.97-24.97L416.97-24.97Q419.38-26.44 421.03-27.31L421.03-27.31L421.03-27.31Q422.69-28.19 425.17-29L425.17-29L425.17-29Q427.66-29.81 429.84-29.81L429.84-29.81L429.84-29.81Q430.66-29.81 431.91-29.33L431.91-29.33L431.91-29.33Q433.16-28.84 434-28.03L434-28.03L434-28.03Q434.41-27.66 434.69-27.14L434.69-27.14L434.69-27.14Q434.97-26.63 435.14-25.86L435.14-25.86L435.14-25.86Q435.31-25.09 435.41-24.44L435.41-24.44L435.41-24.44Q435.50-23.78 435.53-22.67L435.53-22.67L435.53-22.67Q435.56-21.56 435.56-20.84L435.56-20.84L435.56-20.84Q435.56-20.13 435.55-18.75L435.55-18.75L435.55-18.75Q435.53-17.38 435.53-16.63L435.53-16.63L435.53-11.91L435.53-11.91Q435.53-11.63 435.50-10.67L435.50-10.67L435.50-10.67Q435.47-9.72 435.48-9.17L435.48-9.17L435.48-9.17Q435.50-8.63 435.56-7.70L435.56-7.70L435.56-7.70Q435.63-6.78 435.81-6.23L435.81-6.23L435.81-6.23Q436-5.69 436.30-5.11L436.30-5.11L436.30-5.11Q436.59-4.53 437.13-4.25L437.13-4.25L437.13-4.25Q437.66-3.97 438.34-3.97L438.34-3.97L438.34-3.97Q441.09-3.97 444.13-6.84ZM462.22-23.69L462.22-23.69L462.22-23.69Q462.22-22.72 462.81-22.72L462.81-22.72L462.81-22.72Q465.53-22.72 467.95-23.34L467.95-23.34L467.95-23.34Q470.38-23.97 472.34-25.22L472.34-25.22L472.34-25.22Q474.31-26.47 475.47-28.59L475.47-28.59L475.47-28.59Q476.63-30.72 476.63-33.47L476.63-33.47L476.63-33.47Q476.63-35.25 475.98-36.61L475.98-36.61L475.98-36.61Q475.34-37.97 474.31-38.78L474.31-38.78L474.31-38.78Q473.28-39.59 471.84-40.09L471.84-40.09L471.84-40.09Q470.41-40.59 468.98-40.78L468.98-40.78L468.98-40.78Q467.56-40.97 465.94-40.97L465.94-40.97L463.38-40.97L463.38-40.97Q462.69-40.97 462.59-39.28L462.59-39.28L462.59-39.28Q462.22-27 462.22-23.69ZM469.13-21.19L469.13-21.19L469-20.69L485.84-1.72L485.84-1.16L479.50 0.50L479.50 0.50Q465.53-17.44 463.56-19.41L463.56-19.41L463.56-19.41Q463-19.97 462.28-19.97L462.28-19.97L462.28-19.97Q462.28-7.63 462.59-1.47L462.59-1.47L457.28 0.38L456.59-0.19L456.59-0.19Q457.16-10.63 457.16-28.09L457.16-28.09L457.16-28.09Q457.16-28.25 457.06-32.59L457.06-32.59L457.06-32.59Q456.97-36.94 456.97-39.09L456.97-39.09L456.97-39.09Q456.97-40.03 455.81-40.73L455.81-40.73L455.81-40.73Q454.66-41.44 453.59-41.70L453.59-41.70L453.59-41.70Q452.53-41.97 452.06-41.97L452.06-41.97L452.13-43.06L452.50-43.47L469.91-43.47L469.91-43.47Q475.91-43.47 479.41-41.16L479.41-41.16L479.41-41.16Q482.91-38.84 482.91-34.50L482.91-34.50L482.91-34.50Q482.91-31.25 481.84-28.80L481.84-28.80L481.84-28.80Q480.78-26.34 478.84-24.80L478.84-24.80L478.84-24.80Q476.91-23.25 474.52-22.39L474.52-22.39L474.52-22.39Q472.13-21.53 469.13-21.19ZM495.69-25.34L495.69-25.34L495.69-25.34Q493.97-23.50 493.36-21.41L493.36-21.41L493.36-21.41Q492.75-19.31 492.75-16.63L492.75-16.63L492.75-16.63Q492.75-16.25 492.88-15.50L492.88-15.50L493.13-15.22L506.06-20.34L506.06-20.34Q506.88-20.63 506.88-22.03L506.88-22.03L506.88-22.03Q506.88-24.22 505.23-26.13L505.23-26.13L505.23-26.13Q503.59-28.03 501.06-28.03L501.06-28.03L501.06-28.03Q497.88-28.03 495.69-25.34ZM511.03-20.41L511.03-20.41L493-12.59L493-12.59Q493.16-10.97 493.67-9.47L493.67-9.47L493.67-9.47Q494.19-7.97 495.13-6.59L495.13-6.59L495.13-6.59Q496.06-5.22 497.64-4.41L497.64-4.41L497.64-4.41Q499.22-3.59 501.25-3.59L501.25-3.59L501.25-3.59Q505.53-3.59 511.09-7.94L511.09-7.94L511.81-7.81L512.66-6.66L512.66-6.66Q504.72 0.78 498.06 0.78L498.06 0.78L498.06 0.78Q495.59 0.78 493.69-0.13L493.69-0.13L493.69-0.13Q491.78-1.03 490.63-2.48L490.63-2.48L490.63-2.48Q489.47-3.94 488.73-6L488.73-6L488.73-6Q488-8.06 487.72-10.09L487.72-10.09L487.72-10.09Q487.44-12.13 487.44-14.47L487.44-14.47L487.44-14.47Q487.44-21.09 490.69-24.84L490.69-24.84L490.69-24.84Q493.03-27.59 496.34-29.09L496.34-29.09L496.34-29.09Q499.66-30.59 503.31-30.59L503.31-30.59L503.31-30.59Q507.38-30.59 509.88-28.06L509.88-28.06L509.88-28.06Q512.38-25.53 512.38-21.75L512.38-21.75L512.38-21.75Q512.38-21.38 512.16-21.11L512.16-21.11L512.16-21.11Q511.94-20.84 511.73-20.73L511.73-20.73L511.73-20.73Q511.53-20.63 511.03-20.41ZM533.69-24.50L533.69-24.50L530.16-22.16L529.38-22.59L529.38-22.59Q529.03-27.59 525.22-27.59L525.22-27.59L525.22-27.59Q522.97-27.59 521.47-26.11L521.47-26.11L521.47-26.11Q519.97-24.63 519.97-22.41L519.97-22.41L519.97-22.41Q519.97-20.56 521.64-19.19L521.64-19.19L521.64-19.19Q523.31-17.81 527.03-16.25L527.03-16.25L527.03-16.25Q530.78-14.63 532.58-12.84L532.58-12.84L532.58-12.84Q534.38-11.06 534.38-8.84L534.38-8.84L534.38-8.84Q534.38-6.50 533.30-4.56L533.30-4.56L533.30-4.56Q532.22-2.63 530.47-1.42L530.47-1.42L530.47-1.42Q528.72-0.22 526.61 0.44L526.61 0.44L526.61 0.44Q524.50 1.09 522.34 1.09L522.34 1.09L522.34 1.09Q515.75 1.09 512.94-4.22L512.94-4.22L516.06-8.78L516.97-8.72L516.97-8.72Q517.16-5.69 519.22-3.52L519.22-3.52L519.22-3.52Q521.28-1.34 524.25-1.34L524.25-1.34L524.25-1.34Q526.31-1.34 528.02-2.81L528.02-2.81L528.02-2.81Q529.72-4.28 529.72-6.22L529.72-6.22L529.72-6.22Q529.72-7.38 529.19-8.36L529.19-8.36L529.19-8.36Q528.66-9.34 527.64-10.11L527.64-10.11L527.64-10.11Q526.63-10.88 525.67-11.39L525.67-11.39L525.67-11.39Q524.72-11.91 523.38-12.47L523.38-12.47L523.38-12.47Q521.69-13.16 520.39-13.88L520.39-13.88L520.39-13.88Q519.09-14.59 517.89-15.59L517.89-15.59L517.89-15.59Q516.69-16.59 516.03-17.89L516.03-17.89L516.03-17.89Q515.38-19.19 515.38-20.69L515.38-20.69L515.38-20.69Q515.38-23.44 517.05-25.58L517.05-25.58L517.05-25.58Q518.72-27.72 521.22-28.77L521.22-28.77L521.22-28.77Q523.72-29.81 526.44-29.81L526.44-29.81L526.44-29.81Q529.28-29.81 531.42-28.50L531.42-28.50L531.42-28.50Q533.56-27.19 533.69-24.50ZM545.06-20.22L545.06-20.22L545.06-20.22Q544.56-18.09 544.56-15.28L544.56-15.28L544.56-15.28Q544.56-13.50 544.78-11.78L544.78-11.78L544.78-11.78Q545-10.06 545.61-8.19L545.61-8.19L545.61-8.19Q546.22-6.31 547.14-4.92L547.14-4.92L547.14-4.92Q548.06-3.53 549.63-2.63L549.63-2.63L549.63-2.63Q551.19-1.72 553.19-1.72L553.19-1.72L553.19-1.72Q555.19-1.72 556.70-2.52L556.70-2.52L556.70-2.52Q558.22-3.31 559.13-4.53L559.13-4.53L559.13-4.53Q560.03-5.75 560.59-7.45L560.59-7.45L560.59-7.45Q561.16-9.16 561.36-10.75L561.36-10.75L561.36-10.75Q561.56-12.34 561.56-14.09L561.56-14.09L561.56-14.09Q561.56-15.88 561.39-17.50L561.39-17.50L561.39-17.50Q561.22-19.13 560.67-20.97L560.67-20.97L560.67-20.97Q560.13-22.81 559.23-24.14L559.23-24.14L559.23-24.14Q558.34-25.47 556.77-26.36L556.77-26.36L556.77-26.36Q555.19-27.25 553.13-27.25L553.13-27.25L553.13-27.25Q550.38-27.25 548.14-25.44L548.14-25.44L548.14-25.44Q545.91-23.63 545.06-20.22ZM551.47 0.91L551.47 0.91L551.47 0.91Q548.28 0.91 545.89-0.22L545.89-0.22L545.89-0.22Q543.50-1.34 542.09-3.30L542.09-3.30L542.09-3.30Q540.69-5.25 539.97-7.55L539.97-7.55L539.97-7.55Q539.25-9.84 539.06-12.53L539.06-12.53L539.06-12.53Q539.06-16.56 539.77-19.67L539.77-19.67L539.77-19.67Q540.47-22.78 542.56-25.03L542.56-25.03L542.56-25.03Q544.72-27.41 547.89-28.58L547.89-28.58L547.89-28.58Q551.06-29.75 554.59-29.75L554.59-29.75L554.59-29.75Q557.97-29.75 560.52-28.52L560.52-28.52L560.52-28.52Q563.06-27.28 564.48-25.17L564.48-25.17L564.48-25.17Q565.91-23.06 566.59-20.58L566.59-20.58L566.59-20.58Q567.28-18.09 567.28-15.28L567.28-15.28L567.28-15.28Q567.28-7.91 563.56-3.78L563.56-3.78L563.56-3.78Q561.44-1.38 558.27-0.23L558.27-0.23L558.27-0.23Q555.09 0.91 551.47 0.91ZM593.41-24.84L589.97-21.69L589.19-22.03L589.19-22.03Q588.91-23.59 588.09-24.66L588.09-24.66L588.09-24.66Q587.28-25.72 585.81-25.72L585.81-25.72L585.81-25.72Q584.03-25.72 582.78-24.53L582.78-24.53L582.78-24.53Q581.53-23.34 580.88-21.75L580.88-21.75L580.88-21.75Q580.47-20.78 580.36-19.11L580.36-19.11L580.36-19.11Q580.25-17.44 580.34-14.42L580.34-14.42L580.34-14.42Q580.44-11.41 580.44-10.88L580.44-10.88L580.44-10.88Q580.44-6.03 580.63-1.16L580.63-1.16L576.13 0.19L575.19-0.38L575.19-0.38Q575.94-9.31 575.94-15.56L575.94-15.56L575.94-15.56Q575.94-15.84 575.94-16.41L575.94-16.41L575.94-16.41Q575.94-17.63 575.94-18.23L575.94-18.23L575.94-18.23Q575.94-18.84 575.91-19.95L575.91-19.95L575.91-19.95Q575.88-21.06 575.80-21.69L575.80-21.69L575.80-21.69Q575.72-22.31 575.61-23.17L575.61-23.17L575.61-23.17Q575.50-24.03 575.28-24.50L575.28-24.50L575.28-24.50Q575.06-24.97 574.78-25.47L574.78-25.47L574.78-25.47Q574.50-25.97 574.09-26.17L574.09-26.17L574.09-26.17Q573.69-26.38 573.19-26.38L573.19-26.38L573.19-26.38Q571.72-26.38 568.19-24.38L568.19-24.38L567.44-25.47L567.44-25.47Q569.38-27 570.34-27.72L570.34-27.72L570.34-27.72Q571.31-28.44 573.08-29.36L573.08-29.36L573.08-29.36Q574.84-30.28 576.06-30.28L576.06-30.28L576.06-30.28Q580.03-30.28 580.69-25.66L580.69-25.66L581.31-25.41L581.31-25.41Q585.94-29.88 588.38-29.88L588.38-29.88L588.38-29.88Q592.94-29.88 593.41-24.84L593.41-24.84ZM597.81-37.25L597.81-37.25L603.19-39.09L603.63-38.78L603.63-38.78Q603-31.38 602.94-28.16L602.94-28.16L603.31-27.84L611.50-27.84L611.81-27.59L611.31-25.91L610.94-25.59L603.31-25.59L602.94-25.22L602.94-13.13L602.94-13.13Q602.94-11.16 603.09-9.67L603.09-9.67L603.09-9.67Q603.25-8.19 603.69-6.67L603.69-6.67L603.69-6.67Q604.13-5.16 605.08-4.34L605.08-4.34L605.08-4.34Q606.03-3.53 607.47-3.53L607.47-3.53L607.47-3.53Q609.19-3.53 613.28-6.16L613.28-6.16L614.06-6.03L614.50-5.06L614.50-5.06Q608.50 0.56 604.03 0.56L604.03 0.56L604.03 0.56Q600.91 0.56 599.41-1.41L599.41-1.41L599.41-1.41Q598.41-2.69 598.17-4.58L598.17-4.58L598.17-4.58Q597.94-6.47 597.94-13L597.94-13L597.94-25.16L597.56-25.59L590.38-25.59L590.06-25.91L590.50-27.47L590.91-27.84L597.56-27.84L597.94-28.22L597.94-28.22Q597.94-35.59 597.81-37.25Z" fill="url(#editing-sticker-gradient)" stroke="#000000" stroke-width="2.5"></path></g></g><style>text {
  font-size: 64px;
  font-family: Arial Black;
  dominant-baseline: central;
  text-anchor: middle;
}</style></svg>